<svg width="904" height="658" viewBox="0 0 904 658" fill="none" xmlns="http://www.w3.org/2000/svg">
<g id="Group 1">
<g id="svg-anm 1" clip-path="url(#clip0)">
<path id="Vector" opacity="0.3" d="M521.51 19.4299C453.03 45.8799 378.8 47.1099 309.85 22.2099C212.13 -13.0701 84.5104 -22.1001 37.2204 139.57C-43.4896 415.78 121.63 514.37 121.63 514.37C121.63 514.37 236.91 540.21 300.74 586.9C391.41 653.22 502.45 675.39 607.05 644.29C673.94 624.4 731.27 591.77 747.66 538.38C793.5 389.06 764.4 299.31 847.36 259.94C930.32 220.57 884.16 74.7199 825.16 71.4099C766.16 68.0999 627.16 101.93 584.16 34.64C568.83 10.75 545.38 10.1999 521.51 19.4299Z" fill="url(#paint0_linear)"/>
<path id="Vector_2" d="M278.03 402.64H264.44V597.5H278.03V402.64Z" fill="#40414D"/>
<path id="Vector_3" d="M574.85 402.64H561.26V597.5H574.85V402.64Z" fill="#40414D"/>
<path id="Vector_4" d="M259.25 386.78H573.25C579.085 386.78 584.681 389.098 588.806 393.224C592.932 397.349 595.25 402.945 595.25 408.78V411.7H237.25V408.78C237.25 402.945 239.568 397.349 243.694 393.224C247.819 389.098 253.415 386.78 259.25 386.78Z" fill="#DFE6F5"/>
<path id="Vector_5" d="M259.25 382.24H573.25C579.085 382.24 584.681 384.558 588.806 388.684C592.932 392.809 595.25 398.405 595.25 404.24V407.16H237.25V404.24C237.25 398.405 239.568 392.809 243.694 388.684C247.819 384.558 253.415 382.24 259.25 382.24Z" fill="#DFE6F5"/>
<path id="Vector_6" d="M416.25 366.38C431.267 366.38 443.44 354.207 443.44 339.19C443.44 324.173 431.267 312 416.25 312C401.233 312 389.06 324.173 389.06 339.19C389.06 354.207 401.233 366.38 416.25 366.38Z" fill="#FFD77C" stroke="#FFAB50" stroke-miterlimit="10"/>
<path id="Vector_7" d="M416.25 360.74C428.152 360.74 437.8 351.092 437.8 339.19C437.8 327.288 428.152 317.64 416.25 317.64C404.348 317.64 394.7 327.288 394.7 339.19C394.7 351.092 404.348 360.74 416.25 360.74Z" fill="#FFD77C" stroke="#FFAB50" stroke-miterlimit="10"/>
<path id="Vector_8" d="M416.25 355.61C425.319 355.61 432.67 348.259 432.67 339.19C432.67 330.121 425.319 322.77 416.25 322.77C407.181 322.77 399.83 330.121 399.83 339.19C399.83 348.259 407.181 355.61 416.25 355.61Z" fill="#FFD77C" stroke="#FFAB50" stroke-miterlimit="10"/>
<path id="Vector_9" d="M416.25 348.42C421.348 348.42 425.48 344.288 425.48 339.19C425.48 334.092 421.348 329.96 416.25 329.96C411.152 329.96 407.02 334.092 407.02 339.19C407.02 344.288 411.152 348.42 416.25 348.42Z" fill="#FFD77C" stroke="#FFAB50" stroke-miterlimit="10"/>
<path id="Vector_10" d="M400.39 381.11C415.407 381.11 427.58 368.937 427.58 353.92C427.58 338.903 415.407 326.73 400.39 326.73C385.373 326.73 373.2 338.903 373.2 353.92C373.2 368.937 385.373 381.11 400.39 381.11Z" fill="#FFD77C" stroke="#FFAB50" stroke-miterlimit="10"/>
<path id="Vector_11" d="M400.39 375.47C412.292 375.47 421.94 365.822 421.94 353.92C421.94 342.018 412.292 332.37 400.39 332.37C388.488 332.37 378.84 342.018 378.84 353.92C378.84 365.822 388.488 375.47 400.39 375.47Z" fill="#FFD77C" stroke="#FFAB50" stroke-miterlimit="10"/>
<path id="Vector_12" d="M400.39 370.34C409.459 370.34 416.81 362.989 416.81 353.92C416.81 344.851 409.459 337.5 400.39 337.5C391.321 337.5 383.97 344.851 383.97 353.92C383.97 362.989 391.321 370.34 400.39 370.34Z" fill="#FFD77C" stroke="#FFAB50" stroke-miterlimit="10"/>
<path id="Vector_13" d="M400.39 363.15C405.488 363.15 409.62 359.018 409.62 353.92C409.62 348.822 405.488 344.69 400.39 344.69C395.292 344.69 391.16 348.822 391.16 353.92C391.16 359.018 395.292 363.15 400.39 363.15Z" fill="#FFD77C" stroke="#FFAB50" stroke-miterlimit="10"/>
<path id="Vector_14" d="M432.11 381.11C447.127 381.11 459.3 368.937 459.3 353.92C459.3 338.903 447.127 326.73 432.11 326.73C417.093 326.73 404.92 338.903 404.92 353.92C404.92 368.937 417.093 381.11 432.11 381.11Z" fill="#FFD77C" stroke="#FFAB50" stroke-miterlimit="10"/>
<path id="Vector_15" d="M432.11 375.47C444.012 375.47 453.66 365.822 453.66 353.92C453.66 342.018 444.012 332.37 432.11 332.37C420.208 332.37 410.56 342.018 410.56 353.92C410.56 365.822 420.208 375.47 432.11 375.47Z" fill="#FFD77C" stroke="#FFAB50" stroke-miterlimit="10"/>
<path id="Vector_16" d="M432.11 370.34C441.179 370.34 448.53 362.989 448.53 353.92C448.53 344.851 441.179 337.5 432.11 337.5C423.041 337.5 415.69 344.851 415.69 353.92C415.69 362.989 423.041 370.34 432.11 370.34Z" fill="#FFD77C" stroke="#FFAB50" stroke-miterlimit="10"/>
<path id="Vector_17" d="M432.11 363.15C437.208 363.15 441.34 359.018 441.34 353.92C441.34 348.822 437.208 344.69 432.11 344.69C427.012 344.69 422.88 348.822 422.88 353.92C422.88 359.018 427.012 363.15 432.11 363.15Z" fill="#FFD77C" stroke="#FFAB50" stroke-miterlimit="10"/>
<path id="Vector_18" d="M359.6 346H472.89V351.32C472.89 356.573 471.855 361.774 469.845 366.627C467.835 371.48 464.889 375.89 461.174 379.604C457.46 383.319 453.05 386.265 448.197 388.275C443.344 390.285 438.143 391.32 432.89 391.32H399.6C394.347 391.32 389.146 390.285 384.293 388.275C379.44 386.265 375.03 383.319 371.316 379.604C367.601 375.89 364.655 371.48 362.645 366.627C360.635 361.774 359.6 356.573 359.6 351.32V346Z" fill="#FF6366"/>
<path id="Vector_19" opacity="0.1" d="M462.67 345.99C462.375 357.807 457.474 369.04 449.013 377.294C440.552 385.548 429.2 390.168 417.38 390.17H394.89C398.171 390.919 401.525 391.302 404.89 391.31H427.55C433.503 391.313 439.399 390.142 444.899 387.866C450.4 385.59 455.399 382.252 459.609 378.043C463.819 373.835 467.16 368.838 469.438 363.338C471.717 357.838 472.89 351.943 472.89 345.99H462.67Z" fill="black"/>
<path id="Vector_20" d="M568.06 564.64V551.05H273.5V564.64H568.06Z" fill="#40414D"/>
<path id="Vector_21" d="M163.06 503.59H151.17V611.77H163.06V503.59Z" fill="#40414D"/>
<path id="Vector_22" d="M256.97 503.59H245.08V611.77H256.97V503.59Z" fill="#40414D"/>
<path id="Vector_23" d="M266.49 485.76C266.49 492.98 242.01 498.84 211.81 498.84C181.61 498.84 158.32 492.99 158.32 485.76C158.32 478.53 181.61 472.68 211.81 472.68C242.01 472.68 266.49 478.57 266.49 485.76Z" fill="#F6C6CD"/>
<path id="Vector_24" d="M141.66 485.75H266.48V496.65C266.48 499.435 265.374 502.105 263.405 504.075C261.436 506.044 258.765 507.15 255.98 507.15H159.66C154.886 507.15 150.308 505.254 146.932 501.878C143.556 498.502 141.66 493.924 141.66 489.15V485.75Z" fill="#40414D"/>
<path id="Vector_25" d="M120.463 360.671L123.038 360.089C124.849 359.68 126.749 360.008 128.318 360.999C129.888 361.991 130.999 363.565 131.408 365.376L162.582 503.481L158.68 504.362C155.405 505.102 151.97 504.509 149.131 502.716C146.293 500.923 144.283 498.076 143.543 494.8L115.157 369.044C114.954 368.146 114.931 367.217 115.088 366.309C115.245 365.402 115.579 364.534 116.072 363.756C116.565 362.978 117.207 362.305 117.96 361.776C118.714 361.246 119.564 360.871 120.463 360.671Z" fill="#40414D"/>
<path id="Vector_26" d="M671.43 613.69H683.32V505.51H671.43V613.69Z" fill="#40414D"/>
<path id="Vector_27" d="M577.52 613.69H589.41V505.51H577.52V613.69Z" fill="#40414D"/>
<path id="Vector_28" d="M568.02 487.68C568.02 494.9 592.5 500.76 622.7 500.76C652.9 500.76 676.19 494.91 676.19 487.68C676.19 480.45 652.89 474.57 622.7 474.57C592.51 474.57 568.02 480.46 568.02 487.68Z" fill="#F6C6CD"/>
<path id="Vector_29" d="M674.83 509.08H578.51C575.725 509.08 573.055 507.974 571.085 506.005C569.116 504.036 568.01 501.365 568.01 498.58V487.68H692.83V491.08C692.83 495.854 690.934 500.432 687.558 503.808C684.182 507.184 679.604 509.08 674.83 509.08Z" fill="#40414D"/>
<path id="Vector_30" d="M675.827 506.281L671.926 505.401L703.104 367.276C703.513 365.465 704.624 363.891 706.194 362.899C707.763 361.908 709.663 361.58 711.474 361.989L714.049 362.57C715.86 362.979 717.434 364.091 718.426 365.66C719.417 367.23 719.744 369.129 719.336 370.94L690.945 496.715C690.206 499.987 688.199 502.832 685.365 504.626C682.531 506.419 679.1 507.015 675.827 506.281Z" fill="#40414D"/>
<path id="Vector_31" d="M600.89 561.92C600.89 561.92 603.54 591.09 590.28 594.63C577.02 598.17 589.4 612.31 600 609.63C610.6 606.95 649.51 592.83 652.16 571.63C654.81 550.43 625.64 543.34 625.64 543.34L600.89 561.92Z" fill="#B8616E"/>
<path id="Vector_32" opacity="0.05" d="M600.89 561.92C600.89 561.92 603.54 591.09 590.28 594.63C577.02 598.17 589.4 612.31 600 609.63C610.6 606.95 649.51 592.83 652.16 571.63C654.81 550.43 625.64 543.34 625.64 543.34L600.89 561.92Z" fill="black"/>
<path id="Vector_33" d="M606.22 562.8C606.22 562.8 608.87 591.97 595.61 595.51C582.35 599.05 594.73 613.19 605.33 610.51C615.93 607.83 654.84 593.71 657.49 572.51C660.14 551.31 630.97 544.22 630.97 544.22L606.22 562.8Z" fill="#B8616E"/>
<path id="Vector_34" opacity="0.1" d="M633.62 545.12L608.89 563.69C608.89 563.69 609 564.95 609.07 566.96C618.41 564.4 638.76 557.6 639.07 546.96C637.292 546.238 635.472 545.624 633.62 545.12Z" fill="black"/>
<path id="Vector_35" d="M618.15 290.95H607.54V298.91H618.15V290.95Z" fill="#F8BDC5"/>
<path id="Vector_36" d="M607.99 419.57C607.99 419.57 591.14 432.81 577.3 435.95C569.071 437.731 561.094 440.522 553.55 444.26L521.72 460.44C518.829 461.894 516.35 464.05 514.508 466.711C512.667 469.372 511.522 472.452 511.18 475.67C510.27 484.67 513.89 496.51 535.49 503.55L603.56 560.13L624.78 542.45L552.29 486.77L607.99 452.29V419.57Z" fill="#758AC8"/>
<path id="Vector_37" opacity="0.1" d="M607.99 419.57C607.99 419.57 591.14 432.81 577.3 435.95C569.071 437.731 561.094 440.522 553.55 444.26L521.72 460.44C518.829 461.894 516.35 464.05 514.508 466.711C512.667 469.372 511.522 472.452 511.18 475.67C510.27 484.67 513.89 496.51 535.49 503.55L603.56 560.13L624.78 542.45L552.29 486.77L607.99 452.29V419.57Z" fill="black"/>
<g id="man-hand">
<path id="Vector_38" d="M635.539 368.681C635.539 368.681 590.753 369.82 559.276 346.932C527.799 324.044 492.707 330.905 499.964 344.641C507.22 358.376 544.749 369.82 550.801 370.96C556.853 372.099 644 395 644 395L635.539 368.681Z" fill="#F8BDC5"/>
<path id="Vector_39" d="M462.041 343.014L517.761 335.794C520.021 335.504 521.761 334.644 521.701 333.894C521.601 333.144 519.701 332.794 517.391 333.124L461.781 341.174C460.251 341.394 459.091 341.974 459.161 342.484C459.231 342.964 460.511 343.214 462.041 343.014Z" fill="#FF6366"/>
<path id="Vector_40" d="M461.681 343.964L517.581 338.184C519.851 337.954 521.781 338.374 521.851 339.124C521.921 339.874 520.111 340.664 517.851 340.864L461.851 345.864C460.311 346.004 459.051 345.704 459.001 345.194C458.961 344.654 460.151 344.124 461.681 343.964Z" fill="#FF6366"/>
<path id="Vector_41" opacity="0.05" d="M632.395 367.577C632.395 367.577 588.536 368.644 557.71 347.209C526.884 325.774 492.518 332.199 499.625 345.063C506.731 357.926 543.484 368.644 549.41 369.711C555.337 370.777 640.681 392.224 640.681 392.224L632.395 367.577Z" fill="black"/>
</g>
<path id="Vector_42" d="M601.8 411.63L591.19 443.46C591.19 443.46 531.52 480.15 526.65 485.01C522.87 488.79 517.81 503.58 535.49 515.95C553.17 528.32 601.79 567.23 601.79 567.23C601.79 567.23 638.92 559.23 636.27 544.23L575.27 500.03C575.27 500.03 601.79 477.03 629.2 480.58C656.61 484.13 661.03 478.81 661.03 478.81C661.03 478.81 682.25 457.57 675.17 437.27C668.09 416.97 601.8 411.63 601.8 411.63Z" fill="#758AC8"/>
<path id="Vector_43" d="M588.54 267.57C588.54 267.57 618.6 300.28 616.83 310C615.06 319.72 640.7 281.71 640.7 281.71C640.7 281.71 632.7 262.26 634.51 241.04L588.54 267.57Z" fill="#F8BDC5"/>
<path id="Vector_44" d="M680.48 444.34L675.18 446.11L672.03 447.16C667.524 448.665 662.729 449.1 658.026 448.432C653.322 447.764 648.839 446.01 644.93 443.31C637.88 438.44 628.93 433.31 622.13 432.85C608.89 431.96 593.89 422.24 593.89 422.24C593.89 422.24 602.73 410.75 593.89 366.54C585.05 322.33 607.59 290.95 607.59 290.95C607.59 290.95 609.37 300.52 614.82 294.89C616.866 292.727 619.022 290.671 621.28 288.73C625.803 285.021 629.953 280.877 633.67 276.36C639.86 268.36 662.84 302.88 662.84 302.88C662.84 302.88 676.98 318.79 675.22 356.81C675.03 360.81 674.95 364.93 674.94 369.1C674.81 404.68 680.48 444.34 680.48 444.34Z" fill="#5E52AD"/>
<path id="Vector_45" d="M630.09 355.93L630.97 375.38C630.97 375.38 584.11 378.03 574.39 368.31C564.67 358.59 529.5 360.74 530.19 368.31C530.63 373.17 554.06 388.64 568.19 389.53C582.32 390.42 600.89 396.9 608.89 399.25C616.4 401.46 635.79 403.41 645.96 403.61C648.865 403.703 651.735 402.951 654.221 401.444C656.706 399.936 658.7 397.739 659.96 395.12C661.145 392.542 661.529 389.668 661.06 386.87C659.29 375.38 661.06 350.62 661.06 350.62L630.09 355.93Z" fill="#F8BDC5"/>
<path id="Vector_46" d="M640.7 298.47C640.7 298.47 620.37 301.12 623.02 331.18C625.67 361.24 629.21 363.89 629.21 363.89C629.21 363.89 659.27 361.24 662.8 360.35C666.33 359.46 664.57 326.76 664.57 326.76C664.57 326.76 663.68 297.57 640.7 298.47Z" fill="#5E52AD"/>
<path id="Vector_47" opacity="0.1" d="M633.18 260.01C631.79 253.01 634.64 250.85 635.39 241.89L589.39 268.41C589.39 268.41 594.66 274.15 600.65 281.52C603.327 282.197 606.079 282.533 608.84 282.52C620.89 282.57 627.48 269.63 633.18 260.01Z" fill="black"/>
<path id="Vector_48" d="M607.98 281.67C626.045 281.67 640.69 267.025 640.69 248.96C640.69 230.895 626.045 216.25 607.98 216.25C589.915 216.25 575.27 230.895 575.27 248.96C575.27 267.025 589.915 281.67 607.98 281.67Z" fill="#F8BDC5"/>
<path id="Vector_49" opacity="0.1" d="M616.23 239.03C611.23 242.21 611.16 249.4 614.38 254.38C617.6 259.36 623.15 262.65 628.49 265.75C630.04 266.65 631.75 267.58 633.49 267.38C634.828 267.119 636.067 266.493 637.07 265.57C640.807 262.654 644.373 259.526 647.75 256.2C652.61 251.42 657.28 245.53 656.52 238.86C655.66 231.29 648.18 225.59 645.16 218.42C642.62 212.42 643.38 205.69 641.16 199.56C638.94 193.43 631.16 187.76 625.34 190.97C623.19 192.15 621.89 194.26 620.09 195.85C615.63 199.79 608.44 200.18 602.34 198.38C596.24 196.58 594.43 189.23 585.92 189.21C590.15 190.7 593.01 195.11 592.36 199.13C588.95 201.06 584.47 199.96 580.36 199.89C576.25 199.82 571.36 202.12 572.07 205.82C572.69 208.82 577.02 211.05 576.38 214.05C568.868 218.007 560.679 220.518 552.24 221.45C550.71 221.62 561.43 230.53 562.65 231.12C567.12 233.26 572.49 234.83 577.22 236.47C590.07 240.9 603.23 242.48 616.23 239.03Z" fill="black"/>
<path id="Vector_50" d="M616.23 238.14C611.23 241.32 611.16 248.51 614.38 253.49C617.6 258.47 623.15 261.76 628.49 264.86C630.04 265.76 631.75 266.69 633.49 266.49C634.828 266.229 636.067 265.603 637.07 264.68C640.807 261.764 644.373 258.636 647.75 255.31C652.61 250.53 657.28 244.64 656.52 237.97C655.66 230.4 648.18 224.7 645.16 217.53C642.62 211.53 643.38 204.8 641.16 198.67C638.94 192.54 631.16 186.87 625.34 190.08C623.19 191.26 621.89 193.37 620.09 194.96C615.63 198.9 608.44 199.29 602.34 197.49C596.24 195.69 594.43 188.34 585.92 188.32C590.15 189.81 593.01 194.22 592.36 198.24C588.95 200.17 584.47 199.07 580.36 199C576.25 198.93 571.36 201.23 572.07 204.93C572.69 207.93 577.02 210.16 576.38 213.16C568.868 217.117 560.679 219.628 552.24 220.56C550.71 220.73 561.43 229.64 562.65 230.23C567.12 232.37 572.49 233.94 577.22 235.58C590.07 240.02 603.23 241.57 616.23 238.14Z" fill="#916168"/>
<path id="Vector_51" opacity="0.1" d="M655.18 559.46C656.6 562.734 657.094 566.335 656.61 569.87C653.96 591.09 615.06 605.23 604.45 607.87C598.86 609.27 592.77 606 590.22 602.07C591.86 606.69 598.92 611.24 605.34 609.64C615.95 606.99 654.85 592.84 657.5 571.64C658.079 567.436 657.264 563.157 655.18 559.46Z" fill="white"/>
<path id="Vector_52" d="M300.75 558.25C300.75 558.25 288.75 573.25 293.75 579.25C298.75 585.25 323.75 596.72 331.75 596.25C340.25 595.75 368.75 597.25 369.75 584.25C369.75 584.25 371.75 578.25 345.75 577.25C319.75 576.25 327.75 549.25 327.75 549.25L300.75 558.25Z" fill="#594C76"/>
<path id="Vector_53" d="M157.75 431.25C157.75 431.25 145.75 472.25 181.75 479.25L220.75 477.25C220.75 477.25 275.75 466.25 290.75 474.25C290.75 474.25 296.75 475.25 294.75 483.25C292.75 491.25 297.75 545.25 297.75 545.25V563.25C297.75 563.25 331.75 563.25 335.75 559.25C335.75 559.25 332.75 543.25 335.75 530.25C338.75 517.25 330.75 476.25 330.75 476.25L329.96 451.57C329.901 448.521 329.031 445.542 327.439 442.94C325.846 440.339 323.589 438.209 320.9 436.77C319.007 435.767 316.902 435.232 314.76 435.21C314.76 435.21 246.76 424.21 222.76 426.21C198.76 428.21 157.75 431.25 157.75 431.25Z" fill="#8B9CD1"/>
<path id="Vector_54" d="M224.75 300.25C224.75 300.25 242.75 321.25 244.75 328.25C246.75 335.25 268.75 353.25 268.75 353.25C268.75 353.25 252.75 365.25 255.75 371.25C258.75 377.25 234.75 351.25 234.75 351.25L206.75 310.25L224.75 300.25Z" fill="#EB6475"/>
<path id="Vector_55" opacity="0.1" d="M224.75 300.25C224.75 300.25 242.75 321.25 244.75 328.25C246.75 335.25 268.75 353.25 268.75 353.25C268.75 353.25 252.75 365.25 255.75 371.25C258.75 377.25 234.75 351.25 234.75 351.25L206.75 310.25L224.75 300.25Z" fill="black"/>
<path id="Vector_56" d="M236.75 276.25C236.75 276.25 227.75 305.25 227.75 316.25C227.75 327.25 189.75 313.25 190.75 307.25C191.75 301.25 212.75 279.25 213.75 270.25C214.75 261.25 236.75 276.25 236.75 276.25Z" fill="#F8BDC5"/>
<path id="Vector_57" d="M206.75 294.25C206.75 294.25 171.75 285.25 166.75 336.25C161.75 387.25 170.75 393.25 155.75 424.25C140.75 455.25 257.75 428.25 257.75 428.25C257.75 428.25 251.75 421.25 232.75 424.25L223.75 397.25C223.75 397.25 220.75 385.25 237.75 385.25C254.75 385.25 246.75 350.25 246.75 350.25C246.75 350.25 237.75 320.25 232.75 317.25C227.75 314.25 218.75 296.25 206.75 294.25Z" fill="#EB6475"/>
<path id="Vector_58" d="M184.75 339.25L237.75 387.25C237.75 387.25 247.75 367.25 250.75 367.25C253.75 367.25 214.75 308.25 214.75 308.25C214.75 308.25 204.75 296.25 198.75 302.25C192.75 308.25 174.75 304.25 184.75 339.25Z" fill="#EB6475"/>
<path id="Vector_59" d="M227.75 294.25C245.975 294.25 260.75 279.475 260.75 261.25C260.75 243.025 245.975 228.25 227.75 228.25C209.525 228.25 194.75 243.025 194.75 261.25C194.75 279.475 209.525 294.25 227.75 294.25Z" fill="#F8BDC5"/>
<path id="Vector_60" opacity="0.1" d="M256.65 252.96C262.25 255.17 269.11 252.52 272.41 247.49C275.71 242.46 275.61 235.61 272.83 230.27C270.05 224.93 264.91 221.05 259.24 219.03C255.8 217.81 251.97 217.11 249.33 214.59C247.66 213 246.67 210.85 245.42 208.91C240.75 201.63 232.42 197.33 223.95 195.64C215.48 193.95 206.72 194.55 198.1 195.15C194.88 195.38 191.1 195.96 189.64 198.84C188.55 201 189.26 203.59 189.12 206C188.67 213.67 180.12 217.92 172.65 219.76C165.18 221.6 156.52 223.33 152.88 230.09C149.62 236.16 151.95 243.52 152.96 250.34C154.687 262.253 152.106 274.391 145.68 284.57C142.41 289.7 138.2 294.26 135.61 299.77C132.745 305.927 132.081 312.882 133.73 319.47C134.22 321.4 134.91 323.36 134.57 325.32C134.178 326.931 133.403 328.423 132.31 329.67C127.927 335.278 122.417 339.904 116.135 343.249C109.853 346.594 102.939 348.584 95.84 349.09C96.98 353.38 101.13 356.09 105.08 358.09C111.82 361.557 118.923 364.267 126.26 366.17C131.19 367.45 136.35 368.36 141.37 367.49C146.39 366.62 151.28 363.67 153.37 359.01C154.57 356.31 154.75 353.26 155.81 350.5C158.2 344.31 164.57 340.57 167.99 334.88C171.26 329.44 172.53 328.8 173.36 322.52C174.19 316.24 176.02 309.46 181.18 305.77C186.58 301.9 194.18 302.64 200.18 305.61C206.18 308.58 209.89 307.42 214.9 311.78C223.689 319.415 233.525 325.753 244.11 330.6C243.11 321.88 241.5 312.15 234.42 306.96C232.42 305.47 229.89 304.33 228.83 302.05C227.14 298.42 230.03 293.99 228.72 290.2C227.41 286.41 222.43 285.01 220.22 281.57C218.34 278.65 218.85 274.68 220.61 271.68C222.37 268.68 225.15 266.46 227.92 264.36C230.38 262.5 232.873 260.683 235.4 258.91C237.683 257.461 239.733 255.674 241.48 253.61C242.48 252.24 243.14 249.24 244.53 248.27C248.03 245.85 253.41 251.69 256.65 252.96Z" fill="black"/>
<path id="Vector_61" d="M255.65 251.96C261.25 254.17 268.11 251.52 271.41 246.49C274.71 241.46 274.61 234.61 271.83 229.27C269.05 223.93 263.91 220.05 258.24 218.03C254.8 216.81 250.97 216.11 248.33 213.59C246.66 212 245.67 209.85 244.42 207.91C239.75 200.63 231.42 196.33 222.95 194.64C214.48 192.95 205.72 193.55 197.1 194.15C193.88 194.38 190.1 194.96 188.64 197.84C187.55 200 188.26 202.59 188.12 205C187.67 212.67 179.12 216.92 171.65 218.76C164.18 220.6 155.52 222.33 151.88 229.09C148.62 235.16 150.95 242.52 151.96 249.34C153.687 261.253 151.106 273.391 144.68 283.57C141.41 288.7 137.2 293.26 134.61 298.77C131.745 304.927 131.081 311.882 132.73 318.47C133.22 320.4 133.91 322.36 133.57 324.32C133.178 325.931 132.403 327.423 131.31 328.67C126.927 334.278 121.417 338.904 115.135 342.249C108.853 345.594 101.939 347.584 94.84 348.09C95.98 352.38 100.13 355.09 104.08 357.09C110.82 360.557 117.923 363.267 125.26 365.17C130.19 366.45 135.35 367.36 140.37 366.49C145.39 365.62 150.28 362.67 152.37 358.01C153.57 355.31 153.75 352.26 154.81 349.5C157.2 343.31 163.57 339.57 166.99 333.88C170.26 328.44 171.53 327.8 172.36 321.52C173.19 315.24 175.02 308.46 180.18 304.77C185.58 300.9 193.18 301.64 199.18 304.61C205.18 307.58 208.89 306.42 213.9 310.78C222.689 318.415 232.525 324.753 243.11 329.6C242.11 320.88 240.5 311.15 233.42 305.96C231.42 304.47 228.89 303.33 227.83 301.05C226.14 297.42 229.03 292.99 227.72 289.2C226.41 285.41 221.43 284.01 219.22 280.57C217.34 277.65 217.85 273.68 219.61 270.68C221.37 267.68 224.15 265.46 226.92 263.36C229.38 261.5 231.873 259.683 234.4 257.91C236.683 256.461 238.733 254.674 240.48 252.61C241.48 251.24 242.14 248.24 243.53 247.27C247.03 244.85 252.41 250.69 255.65 251.96Z" fill="#916168"/>
<g id="eat-hand">
<path id="Vector_62" d="M260.75 350.25C260.75 350.25 268.75 360.25 273.75 350.25C278.75 340.25 289.75 307.25 289.75 307.25C289.75 307.25 316.75 278.25 325.75 287.25C334.75 296.25 303.75 312.25 303.75 312.25C303.75 312.25 292.75 373.25 282.75 374.25C272.75 375.25 257.75 374.25 257.75 374.25L252.75 363.25L260.75 350.25Z" fill="#F8BDC5"/>
<path id="Vector_63" d="M378.4 298.272L322.67 291.052C320.41 290.762 318.67 289.902 318.73 289.152C318.83 288.402 320.73 288.052 323.04 288.382L378.65 296.432C380.18 296.652 381.34 297.232 381.27 297.742C381.2 298.222 379.92 298.472 378.4 298.272Z" fill="#FF6366"/>
<path id="Vector_64" d="M378.75 299.222L322.85 293.442C320.58 293.212 318.65 293.632 318.58 294.382C318.51 295.132 320.32 295.922 322.58 296.122L378.58 301.122C380.12 301.262 381.38 300.962 381.43 300.452C381.47 299.912 380.28 299.382 378.75 299.222Z" fill="#FF6366"/>
<path id="Vector_65" opacity="0.05" d="M261 348.732C261 348.732 269 358.732 274 348.732C279 338.732 290 305.732 290 305.732C290 305.732 317 276.732 326 285.732C335 294.732 304 310.732 304 310.732C304 310.732 293 371.732 283 372.732C273 373.732 258 372.732 258 372.732L253 361.732L261 348.732Z" fill="black"/>
<path id="Vector_66" d="M372.5 294.232H371.5V335.232H372.5V294.232Z" fill="#FFD77C" stroke="#FFAB50" stroke-width="0.25" stroke-miterlimit="10"/>
<path id="Vector_67" d="M373.5 294.232H372.5V335.232H373.5V294.232Z" fill="#FFD77C" stroke="#FFAB50" stroke-width="0.25" stroke-miterlimit="10"/>
<path id="Vector_68" d="M374.5 294.232H373.5V335.232H374.5V294.232Z" fill="#FFD77C" stroke="#FFAB50" stroke-width="0.25" stroke-miterlimit="10"/>
<path id="Vector_69" d="M375.5 294.232H374.5V335.232H375.5V294.232Z" fill="#FFD77C" stroke="#FFAB50" stroke-width="0.25" stroke-miterlimit="10"/>
<path id="Vector_70" d="M376.5 294.232H375.5V335.232H376.5V294.232Z" fill="#FFD77C" stroke="#FFAB50" stroke-width="0.25" stroke-miterlimit="10"/>
<path id="Vector_71" d="M377.5 294.232H376.5V335.232H377.5V294.232Z" fill="#FFD77C" stroke="#FFAB50" stroke-width="0.25" stroke-miterlimit="10"/>
<path id="Vector_72" d="M378.5 294.232H377.5V335.232H378.5V294.232Z" fill="#FFD77C" stroke="#FFAB50" stroke-width="0.25" stroke-miterlimit="10"/>
</g>
<path id="Vector_73" d="M241.75 366.25C241.75 366.25 314.75 374.25 326.75 372.25C326.75 372.25 380.35 365.65 366.75 379.25C365.75 380.25 330.75 388.25 326.75 387.25C322.75 386.25 237.75 387.25 237.75 387.25L236.75 377.25L241.75 366.25Z" fill="#F8BDC5"/>
</g>
</g>
<defs>
<linearGradient id="paint0_linear" x1="184.62" y1="77" x2="705.12" y2="543" gradientUnits="userSpaceOnUse">
<stop stop-color="#020CFF"/>
<stop offset="0.954451" stop-color="#14FF00"/>
</linearGradient>
<clipPath id="clip0">
<rect width="903.77" height="657.14" fill="white"/>
</clipPath>
</defs>
</svg>
